#!OML:ASF F:\VICON\USERDATA\INSTALL\rory3\rory3.ASF
:FULLY-SPECIFIED
:DEGREES
82
root 0.7491977460739968 17.87828468740719 34.3804260256562 -5.12170691431225 -2.8558623806750205 0.47816548062575404
lfemur -8.47821546009283 -2.7635625224947207 -24.46470835344053
ltibia 22.455437659907915
lfoot -9.603279848506867 -1.4398817168620075
ltoes 2.2925416917102823
rfemur -19.542188261241698 -2.0111751926154287 21.89958704832344
rtibia 64.89073731313741
rfoot -1.9511564710064988 -11.205427255067868
rtoes 7.276982062778194
lowerback 10.351265383753693 0.4082067201965548 -0.1943150007774035
upperback 0.5548378074269488 0.5403349284507787 0.6259317388277088
thorax -5.162119930599785 0.24417922682968657 0.4463717224626462
lowerneck -15.687198813796906 -2.7458301902019957 -2.7410175177815965
upperneck 19.906457291767502 -3.5492584732556502 1.86151091571649
head 8.900974899471493 -1.6869459630261103 0.7101835659681965
lclavicle -4.552297741728744e-16 -7.77925192655194e-16
lhumerus -32.430464985218634 7.814635572366683 78.86063964814902
lradius 21.49732158511158
lwrist 3.2376365106214124
lhand -28.584636409889633 20.024134138115524
lfingers 7.12502
lthumb -1.8272370225750334 50.07412525276954
rclavicle -4.503458752078495e-16 -7.726905617896727e-16
rhumerus -29.147408109493764 -19.711570630035457 -79.58243236597146
rradius 26.49973423663256
rwrist 2.9507298569923597
rhand -17.22256492508551 22.488822531865736
rfingers 7.12502
rthumb 8.913909036510903 -7.493555451233635
83
root 0.7450781963320613 17.82479129762974 34.84231696656028 -4.554813268752932 -2.762291166445801 0.22686826221319123
lfemur -6.511106465799187 -2.9317932464554852 -24.448088070313638
ltibia 22.677010882708075
lfoot -12.347225940464064 -0.2614249088842775
ltoes 1.5482524791516599
rfemur -22.604729477624964 -2.0623944189396117 22.836838446986754
rtibia 63.9852315589242
rfoot -4.405507975794027 -10.361691551859588
rtoes 4.626821510050483
lowerback 10.393909616338528 0.18104458023227946 -0.11629555495160471
upperback 0.5266409984182281 0.17344941036249772 0.8902068769734289
thorax -5.206963578709979 0.06595566647895182 0.819856272296862
lowerneck -15.767358510754947 -2.795469949092924 -3.107278451233891
upperneck 19.8605230826539 -3.6263887540644464 2.1213100684036927
head 8.904960608738698 -1.7137783908705284 0.8478505805138606
lclavicle -4.542762873028273e-16 -7.771883144501063e-16
lhumerus -30.72692541704263 5.956173962129682 79.07918967042946
lradius 23.219434132294698
lwrist 4.259953024423004
lhand -28.831117281579044 19.613705227782425
lfingers 7.12502
lthumb -2.4799749810374156 48.5561982928523
rclavicle -4.537204888451937e-16 -7.751395054058272e-16
rhumerus -29.99894660535423 -19.24111001000265 -79.63254869952819
rradius 26.971296695415543
rwrist 2.1471064749837985
rhand -17.259345881808166 22.548536712159155
rfingers 7.12502
rthumb 8.829278194846466 -7.484908127791526
84
root 0.7418019672639099 17.794574981388855 35.441555880568124 -4.14943206891484 -1.9679743649700174 1.619341927979847
lfemur -3.9134863125490558 -3.444539459078619 -26.309775081152846
ltibia 21.370727216958183
lfoot -13.683248904902731 -0.04012880447758205
ltoes 1.416662679836739
rfemur -25.15104911278422 -2.898216665350573 21.56578865255465
rtibia 60.81661799092994
rfoot -6.704976564622897 -10.504133431702538
rtoes 5.106971268478864
lowerback 10.592929979717224 -0.14413450446952641 -1.4909921436543823
upperback 0.5820674131682162 -0.38269944962716296 0.6789573233932696
thorax -5.161493536829525 -0.18881481453285687 1.4782134651454664
lowerneck -15.946887915751155 -2.830977004560282 -3.3537246393709395
upperneck 19.850636746673654 -3.675602076014046 2.395514752040801
head 8.934698341436967 -1.7276773137693697 0.9679324138278704
lclavicle -4.543492084341884e-16 -7.7724460306583725e-16
lhumerus -29.149376646536677 3.7081332574922854 79.34010137486996
lradius 25.24813726457513
lwrist 6.2833008298410515
lhand -29.243303599660482 18.961862563745825
lfingers 7.12502
lthumb -2.770171869263547 48.173796396109935
rclavicle -4.519833673716097e-16 -7.737943308027227e-16
rhumerus -30.564087022865692 -18.766919867096146 -79.63707094154412
rradius 27.2985340082745
rwrist 1.6674020583196296
rhand -17.37574327073281 22.707150242728645
rfingers 7.12502
rthumb 8.669263880031208 -7.3610947875640855
85
root 0.697672517133158 17.806328235443875 36.049164991227016 -3.549058706476779 -1.7056885554664154 0.7907241154231133
lfemur -1.4208489891220903 -3.6628395581621693 -25.35805329830806
ltibia 19.922965294960562
lfoot -14.094672941314233 0.12215554467712941
ltoes 0.6009384913435327
rfemur -25.936390879260244 -2.150590042027796 22.73319904014129
rtibia 53.9056359875683
rfoot -6.0230823333747905 -11.809005505230884
rtoes 3.7356340692485137
lowerback 10.529769002577906 -0.3530793185766315 -0.9300091552140402
upperback 0.6660768238409198 -0.6597864432707543 1.0483362575074555
thorax -5.007696078904989 -0.320307671707714 1.738306045410124
lowerneck -16.026838694003974 -2.931924505774805 -3.681596240263981
upperneck 19.76507288529447 -3.8207393876939504 2.793965439949571
head 8.915153485747776 -1.775571324792535 1.1467499931544358
lclavicle -4.555494328092558e-16 -7.781716386098551e-16
lhumerus -27.538973323725546 2.453001075482897 79.00280920354511
lradius 27.34500072142307
lwrist 6.770769241665156
lhand -29.023385248637958 19.305284175387726
lfingers 7.12502
lthumb -2.5594853669083033 48.81408977228452
rclavicle -4.519094769130037e-16 -7.736129735707043e-16
rhumerus -31.218345971059634 -18.775920726947792 -79.47992905952825
rradius 27.48752103119725
rwrist 1.6835407627005878
rhand -17.534483247352707 22.764670401747217
rfingers 7.12502
rthumb 8.538083517051874 -7.27222366152028
86
root 0.6526053279556638 17.83223230241735 36.37942374604811 -2.932283723034005 -1.4263838180464947 1.2209395220009385
lfemur 1.5478335649775872 -3.6170371761489113 -25.90041231671973
ltibia 16.8587474629654
lfoot -13.394041468517937 -0.7596157478495382
ltoes -0.881382173479548
rfemur -26.001165831808287 -0.9383668681389641 22.07329383979245
rtibia 45.06242454873528
rfoot -4.969294230223964 -13.377709592092891
rtoes 2.390456800564843
lowerback 10.112346377374042 -0.48737348635166006 -1.6221188459013451
upperback 0.6517932878706875 -0.8652872480563896 1.0039194940549678
thorax -4.778406478828557 -0.40376192392535504 2.1524298657078345
lowerneck -16.109121340304586 -2.9083953196846926 -3.639733998453543
upperneck 19.625489006781624 -3.796974841457362 2.813418204259462
head 8.895144280108267 -1.7602835071715808 1.1513770378446275
lclavicle -4.54544412529406e-16 -7.773953502124442e-16
lhumerus -26.31575939193584 1.1110799894808787 78.9175178195624
lradius 29.222328768761265
lwrist 8.290542956441765
lhand -29.491441711484566 19.6657015636956
lfingers 7.12502
lthumb -2.8055871308807925 49.379615715940794
rclavicle -4.491131527141327e-16 -7.715758700106069e-16
rhumerus -31.82516987281969 -19.527129598882556 -78.9666458431262
rradius 27.077629969243382
rwrist 2.0201466188117667
rhand -17.24928035140639 22.903430406501737
rfingers 7.12502
rthumb 8.943348260576622 -6.9683483382091005
87
root 0.5995028514669376 17.80916261108774 36.5944004583905 -1.928821885063785 -0.5131511186953586 1.637428821402144
lfemur 4.378690068944394 -3.4313167726812406 -26.100943300006126
ltibia 13.864555250215702
lfoot -13.462928760151499 -1.458118339373832
ltoes -3.624050152610392
rfemur -25.138121368025462 0.933923490853013 20.751989144311292
rtibia 35.10743961736948
rfoot -4.963257558521456 -15.443293033134186
rtoes 2.3407635488539094
lowerback 9.289320744012201 -0.8442966893847754 -2.243843316027056
upperback 0.5137847527022915 -1.3319992070853333 0.9982996862772158
thorax -4.551592128147512 -0.6272881499081225 2.46508501156936
lowerneck -16.195550732435144 -2.9138386738672604 -3.693216789490305
upperneck 19.578586300590956 -3.7883764549251087 2.957943265726059
head 8.902905138325732 -1.7479534683904627 1.2013338018154345
lclavicle -4.5562737740211375e-16 -7.782324143002738e-16
lhumerus -25.182925095875586 0.4694170117938432 78.5682396977343
lradius 31.060218425412565
lwrist 8.921043238845275
lhand -28.5585305610831 21.59917015779254
lfingers 7.12502
lthumb -2.1659524948384186 51.24701383939872
rclavicle -4.50706611350295e-16 -7.728969548735946e-16
rhumerus -32.53354585111014 -20.452773553610896 -78.1580561673323
rradius 26.262689642186896
rwrist 2.9307157576967016
rhand -17.32365004244134 23.427443515451195
rfingers 7.12502
rthumb 8.859453472258526 -6.518067976165055
88
root 0.5143700199532433 17.80428836364909 36.60905639577025 -1.034034079883602 0.3101381177821416 1.8425829801057287
lfemur 7.469957731332249 -3.418470148905009 -26.123436899915212
ltibia 10.525271180706238
lfoot -12.852505176257166 -2.6642190126774543
ltoes -4.299564937019431
rfemur -23.38190361883333 4.568455019782176 19.025050296532346
rtibia 24.747872545672443
rfoot -5.6875430375862965 -17.261505147785357
rtoes -0.7598862311590677
lowerback 8.59729919817898 -1.1223423081433863 -3.09808405539978
upperback 0.27888071393441527 -1.771760552860475 1.0060757971265164
thorax -4.419563030074136 -0.8144251080356321 3.005698158766271
lowerneck -16.231367217222438 -2.8890233469758786 -3.627928556641396
upperneck 19.623896418484122 -3.739512288074414 2.901954330009125
head 8.920523746353409 -1.732285601818582 1.1646047368557066
lclavicle -4.536651716674485e-16 -7.767157622535462e-16
lhumerus -24.399537823218125 -0.1885630417900881 78.50743359560704
lradius 32.65880887186835
lwrist 9.556232599806872
lhand -28.352722721581 21.216532941251977
lfingers 7.12502
lthumb -1.7967913633112733 50.8945024825245
rclavicle -4.516399638912116e-16 -7.734702814936825e-16
rhumerus -33.14517167766741 -21.24827287218835 -77.3669990189636
rradius 25.63088989477178
rwrist 4.028343485906542
rhand -17.542224474186632 23.83620873148678
rfingers 7.12502
rthumb 8.682940741337442 -6.128723737902904
89
root 0.4453078959430562 17.72423761602871 37.181690814967695 -1.1803461143252085 1.4698703841861387 1.8224182224905445
lfemur 9.489064041392814 -4.121533762499689 -25.654539197268942
ltibia 10.489325417849827
lfoot -13.707478835753605 -3.86221865651677
ltoes -7.5827958281386625
rfemur -22.54690239822412 5.635700976526238 18.104320227850437
rtibia 19.365083314978868
rfoot -6.755913693405078 -15.965518408585435
rtoes 0.14574907316541053
lowerback 9.176659311105986 -1.4605182333263096 -3.0784792426664245
upperback 0.3586931039116166 -2.269286366089231 1.1625476055022705
thorax -4.498836182001638 -1.089348404225078 3.113092572930161
lowerneck -16.325337089810322 -2.9272812170008735 -3.7115592025167925
upperneck 19.696480116170267 -3.7716256937371297 2.9261222690377426
head 8.961006341759065 -1.7483398484216657 1.175782839380569
lclavicle -4.54595117309549e-16 -7.77434609659258e-16
lhumerus -23.950549273040224 0.0322517755632008 78.41963406796079
lradius 33.68943945473407
lwrist 9.251080128910644
lhand -28.916165252016807 21.37069062829498
lfingers 7.12502
lthumb -2.2368069727542563 51.403525682813665
rclavicle -4.509050549759539e-16 -7.728508850182679e-16
rhumerus -33.928521793096984 -22.4711295970124 -76.34229904816476
rradius 24.61346728557522
rwrist 4.915488589417685
rhand -17.659781156541026 23.68992977132809
rfingers 7.12502
rthumb 8.600031300953127 -5.992066375379784
